<?xml version="1.0" encoding="UTF-8" standalone="no"?>
<!-- Created with Inkscape (http://www.inkscape.org/) -->

<svg
   xmlns:dc="http://purl.org/dc/elements/1.1/"
   xmlns:cc="http://creativecommons.org/ns#"
   xmlns:rdf="http://www.w3.org/1999/02/22-rdf-syntax-ns#"
   xmlns:svg="http://www.w3.org/2000/svg"
   xmlns="http://www.w3.org/2000/svg"
   xmlns:sodipodi="http://sodipodi.sourceforge.net/DTD/sodipodi-0.dtd"
   xmlns:inkscape="http://www.inkscape.org/namespaces/inkscape"
   width="90.31102mm"
   height="12.37119mm"
   viewBox="0 0 90.31102 12.37119"
   version="1.1"
   id="svg823"
   inkscape:version="0.92.1 r15371"
   sodipodi:docname="footer-logo.svg">
  <defs
     id="defs817" />
  <sodipodi:namedview
     id="base"
     pagecolor="#ffffff"
     bordercolor="#666666"
     borderopacity="1.0"
     inkscape:pageopacity="0.0"
     inkscape:pageshadow="2"
     inkscape:zoom="2.8"
     inkscape:cx="211.99186"
     inkscape:cy="107.31553"
     inkscape:document-units="mm"
     inkscape:current-layer="layer1"
     showgrid="false"
     inkscape:window-width="1920"
     inkscape:window-height="986"
     inkscape:window-x="-11"
     inkscape:window-y="-11"
     inkscape:window-maximized="1" />
  <metadata
     id="metadata820">
    <rdf:RDF>
      <cc:Work
         rdf:about="">
        <dc:format>image/svg+xml</dc:format>
        <dc:type
           rdf:resource="http://purl.org/dc/dcmitype/StillImage" />
        <dc:title></dc:title>
      </cc:Work>
    </rdf:RDF>
  </metadata>
  <g
     inkscape:label="Layer 1"
     inkscape:groupmode="layer"
     id="layer1"
     transform="translate(401.96503,-97.867915)">
    <g
       id="g879"
       transform="matrix(0.26458333,0,0,0.26458333,-401.96503,97.847171)">
      <circle
         id="circle6"
         r="108.418"
         cy="108.418"
         cx="172.489"
         style="fill:#f9a602;fill-opacity:1" />
      <path
         inkscape:connector-curvature="0"
         id="path8"
         d="M 280.902,108.418 C 280.902,49.147999 233.336,1.0189993 174.297,0.04499927 V 216.79 c 59.039,-0.973 106.605,-49.102 106.605,-108.372 z"
         style="fill:#f15b00;fill-opacity:1" />
      <circle
         id="circle10"
         r="72.278"
         cy="108.418"
         cx="172.489"
         style="fill:#ffedb5" />
      <path
         inkscape:connector-curvature="0"
         id="path12"
         d="m 244.764,108.418 c 0,-39.310001 -31.387,-71.268001 -70.465,-72.233001 V 180.652 c 39.077,-0.966 70.465,-32.924 70.465,-72.234 z"
         style="fill:#fee187" />
      <rect
         id="rect14"
         height="59.008999"
         width="7.98"
         style="fill:#ffc61b"
         y="61.647995"
         x="311.815" />
      <path
         inkscape:connector-curvature="0"
         id="path16"
         d="m 315.811,209.194 v 0 c 6.666,0 12.071,-5.404 12.071,-12.071 v -79.136 c 0,-6.666 -5.404,-12.071 -12.071,-12.071 v 0 c -6.666,0 -12.071,5.404 -12.071,12.071 v 79.136 c 0,6.667 5.405,12.071 12.071,12.071 z"
         style="fill:#ff7f4f" />
      <path
         inkscape:connector-curvature="0"
         id="path18"
         d="M 341.333,49.339999 V 7.6839993 c 0,-2.431 -1.82,-4.61 -4.248,-4.736 -2.589,-0.136 -4.73,1.924 -4.73,4.482 V 41.861999 c 0,2.019 -1.638,3.655 -3.656,3.651 -1.629,-0.003 -3.543,-0.007 -5.17,-0.009 -2.014,-0.003 -3.641,-1.638 -3.641,-3.651 V 7.6829993 c 0,-2.431 -1.82,-4.61 -4.248,-4.736 -2.589,-0.136 -4.73,1.924 -4.73,4.482 V 41.851999 c 0,2.014 -1.627,3.648 -3.641,3.651 -1.627,0.002 -3.541,0.005 -5.17,0.009 -2.019,0.003 -3.656,-1.633 -3.656,-3.651 V 7.6829993 c 0,-2.431 -1.82,-4.61 -4.248,-4.736 -2.589,-0.136 -4.73,1.924 -4.73,4.482 V 49.338999 c 0,10.916 8.849,19.765 19.765,19.765 h 6.165 c 0.002,0 0.003,0 0.005,0 0.002,0 0.003,0 0.005,0 h 6.165 c 10.915,-0.001 19.763,-8.848 19.763,-19.764 z"
         style="fill:#bcc6cc;fill-opacity:1" />
      <rect
         id="rect20"
         height="59.130001"
         width="7.9949999"
         style="fill:#ffc61b"
         y="60.785995"
         x="25.577999" />
      <path
         inkscape:connector-curvature="0"
         id="path22"
         d="m 0,45.994999 c 0,-16.331 13.238,-44.3529997 29.568,-44.3529997 16.33,0 29.568,28.0219997 29.568,44.3529997 0,16.331 -13.238,29.568 -29.568,29.568 -16.33,0 -29.568,-13.237 -29.568,-29.568 z"
         style="fill:#bcc6cc;fill-opacity:1" />
      <path
         inkscape:connector-curvature="0"
         id="path24"
         d="m 29.568,208.623 v 0 c 6.68,0 12.097,-5.417 12.097,-12.097 v -79.298 c 0,-6.68 -5.417,-12.097 -12.097,-12.097 v 0 c -6.68,0 -12.097,5.417 -12.097,12.097 v 79.298 c 0.001,6.681 5.417,12.097 12.097,12.097 z"
         style="fill:#ff7f4f" />
      <g
         transform="translate(-81.701,-147.582)"
         id="g26" />
      <g
         transform="translate(-81.701,-147.582)"
         id="g28" />
      <g
         transform="translate(-81.701,-147.582)"
         id="g30" />
      <g
         transform="translate(-81.701,-147.582)"
         id="g32" />
      <g
         transform="translate(-81.701,-147.582)"
         id="g34" />
      <g
         transform="translate(-81.701,-147.582)"
         id="g36" />
      <g
         transform="translate(-81.701,-147.582)"
         id="g38" />
      <g
         transform="translate(-81.701,-147.582)"
         id="g40" />
      <g
         transform="translate(-81.701,-147.582)"
         id="g42" />
      <g
         transform="translate(-81.701,-147.582)"
         id="g44" />
      <g
         transform="translate(-81.701,-147.582)"
         id="g46" />
      <g
         transform="translate(-81.701,-147.582)"
         id="g48" />
      <g
         transform="translate(-81.701,-147.582)"
         id="g50" />
      <g
         transform="translate(-81.701,-147.582)"
         id="g52" />
      <g
         transform="translate(-81.701,-147.582)"
         id="g54" />
    </g>
    <text
       xml:space="preserve"
       style="font-style:normal;font-weight:normal;font-size:10.58333302px;line-height:1.25;font-family:sans-serif;letter-spacing:0px;word-spacing:0px;fill:#000000;fill-opacity:1;stroke:none;stroke-width:0.26458332"
       x="-346.686"
       y="110.71158"
       id="text891"><tspan
         sodipodi:role="line"
         id="tspan889"
         x="-346.686"
         y="120.36707"
         style="stroke-width:0.26458332"></tspan></text>
    <g
       id="layer1-6"
       transform="translate(-400.51124,-108.97474)">
      <g
         aria-label="©Michal Jez"
         transform="rotate(-16.476776)"
         style="font-style:normal;font-weight:normal;font-size:10.58333302px;line-height:1.25;font-family:sans-serif;letter-spacing:0px;word-spacing:0px;fill:#000000;fill-opacity:1;stroke:none;stroke-width:0.26458332"
         id="text944">
        <path
           d="m -60.079839,209.01697 q -0.0813,-0.011 -0.165365,-0.0234 -0.0441,-0.001 -0.101974,-0.008 -0.0565,-0.007 -0.128158,-0.0193 -0.03169,-0.0138 -0.08268,-0.0317 -0.04961,-0.0165 -0.114377,-0.0372 -0.09233,-0.0303 -0.172255,-0.0951 -0.07855,-0.0648 -0.144694,-0.16537 -0.05788,-0.0896 -0.09371,-0.18741 -0.03445,-0.0992 -0.04548,-0.20395 -0.01378,-0.13229 -0.02481,-0.26596 0.0083,-0.0579 0.01792,-0.113 0.0248,-0.15021 0.07028,-0.2577 0.04548,-0.10748 0.108865,-0.17225 0.01102,-0.0124 0.02894,-0.0289 0.01791,-0.0179 0.04134,-0.0427 0.02067,-0.0248 0.04134,-0.051 0.02067,-0.0276 0.03996,-0.0524 0.0124,-0.0152 0.03859,-0.0303 0.02618,-0.0152 0.06615,-0.0358 0.01929,-0.0248 0.03583,-0.0427 0.01654,-0.0179 0.02618,-0.022 0.03859,-0.0152 0.08406,-0.0331 0.0055,-0.003 0.02756,-0.0179 0.02205,-0.0165 0.05926,-0.0413 0.01516,-0.01 0.03858,-0.0179 0.02481,-0.008 0.05788,-0.0138 0.136426,-0.0207 0.272851,-0.0372 0.143316,0 0.272852,0.0262 0.130914,0.0248 0.246669,0.0799 0.135048,0.0648 0.223242,0.1571 0.08957,0.091 0.13367,0.2136 0.01378,0.0372 0.0317,0.0951 0.01929,0.0565 0.04685,0.13367 -0.0014,0.0138 0,0.0455 0.0014,0.0317 0.0083,0.0813 0.0083,0.0551 0.01102,0.091 0.0028,0.0358 0.0028,0.051 0,0.0413 -0.0055,0.0951 -0.0055,0.0524 -0.01791,0.11989 -0.01378,0.0772 -0.03032,0.12678 -0.01516,0.0496 -0.03583,0.0703 -0.0069,0.007 -0.01791,0.0234 -0.01102,0.0152 -0.02481,0.0344 -0.0083,0.0317 -0.01378,0.051 -0.0055,0.0179 -0.01378,0.0303 -0.0083,0.0138 -0.02481,0.0276 -0.01654,0.0138 -0.0441,0.0234 -0.0124,0.0221 -0.02481,0.0441 -0.0124,0.0221 -0.0248,0.0427 -0.01654,0.0276 -0.03445,0.0455 -0.01654,0.0165 -0.03032,0.0248 -0.01791,0.011 -0.04548,0.0276 -0.02618,0.0152 -0.06201,0.0386 -0.01516,0.0344 -0.05237,0.0593 -0.03583,0.0248 -0.09371,0.0386 l -0.04547,0.0413 q -0.0096,0.008 -0.01929,0.0138 -0.0096,0.007 -0.01929,0.008 -0.01791,0.003 -0.0565,0.0152 -0.03858,0.0124 -0.09784,0.0331 -0.05512,0.0193 -0.08544,0.0289 -0.03032,0.01 -0.03858,0.01 z m -0.932932,-1.02802 q 0.0014,0.0124 0.0055,0.0331 0.0041,0.0193 0.01102,0.0441 0.0055,0.0193 0.0055,0.0455 0.0014,0.0248 0.0014,0.0648 0,0.011 0.01102,0.0551 0.0124,0.0441 0.03583,0.11024 l 0.03721,0.10611 q 0.0041,0.011 0.03032,0.0427 0.02618,0.0303 0.07441,0.0813 0.02894,0.0303 0.07304,0.0689 0.04547,0.0386 0.106109,0.0841 0.0096,0.008 0.02205,0.0193 0.01378,0.011 0.03307,0.022 0.0124,0.007 0.03307,0.0138 0.02205,0.006 0.04823,0.0193 0.02067,0.011 0.04272,0.0207 0.02205,0.01 0.04134,0.0234 0.01516,0.011 0.03996,0.0124 0.02481,0.001 0.05512,0.004 0.100596,0.008 0.186035,0.0152 0.05237,-0.007 0.09371,-0.01 0.04134,-0.004 0.0689,-0.006 0.01929,-0.001 0.0441,-0.008 0.02618,-0.008 0.05512,-0.022 0.08406,-0.0413 0.14056,-0.073 0.0565,-0.0317 0.0813,-0.0565 0.09646,-0.0965 0.187413,-0.19155 0.01929,-0.0138 0.04134,-0.0386 0.02343,-0.0262 0.04823,-0.0634 0.01929,-0.0441 0.03721,-0.0868 0.01791,-0.0441 0.03583,-0.0882 0.01516,-0.0358 0.02205,-0.0868 0.0083,-0.0524 0.0083,-0.11438 0,-0.16536 -0.03445,-0.29627 -0.03445,-0.13092 -0.106109,-0.23151 -0.01654,-0.0221 -0.03445,-0.0482 -0.01654,-0.0276 -0.03307,-0.0524 -0.01929,-0.0276 -0.04134,-0.0482 -0.02067,-0.0221 -0.04272,-0.0372 -0.0055,-0.004 -0.01654,-0.011 -0.01102,-0.007 -0.01791,-0.0152 -0.01792,-0.0179 -0.02756,-0.0276 -0.0083,-0.011 -0.0124,-0.0165 -0.0083,-0.01 -0.02205,-0.0165 -0.0124,-0.008 -0.02756,-0.0165 -0.0248,-0.01 -0.05788,-0.0248 -0.03307,-0.0152 -0.07855,-0.0358 -0.01516,-10e-4 -0.03721,-0.006 -0.02205,-0.004 -0.05099,-0.011 -0.0124,-0.006 -0.02205,-0.0152 -0.05926,0.01 -0.119889,0.0165 0.0124,0 -0.0096,-0.003 -0.02067,-0.004 -0.07579,-0.0165 -0.02067,0.007 -0.03169,0.01 -0.01378,0.003 -0.03445,0.006 -0.01929,0.003 -0.04823,0.004 -0.02894,0.011 -0.07442,0.0234 -0.04548,0.0124 -0.106108,0.0276 -0.03721,0.004 -0.09233,0.0372 -0.05512,0.0331 -0.129536,0.0965 -0.06752,0.0565 -0.114377,0.10611 -0.04548,0.0496 -0.07166,0.0868 -0.01791,0.0262 -0.03721,0.0551 -0.01791,0.0289 -0.03721,0.0524 -0.0055,0.007 -0.01516,0.0221 -0.0083,0.0138 -0.01929,0.0317 -0.0014,0.0152 -0.01102,0.0427 -0.0096,0.0262 -0.02067,0.0703 -0.01102,0.04 -0.02343,0.0896 -0.01103,0.0496 -0.02205,0.11024 z m 1.016992,-0.29765 -0.0055,-0.0138 -0.04272,-0.0207 h -0.0083 q -0.05374,0 -0.09922,0.0276 -0.04548,0.0276 -0.08406,0.0841 -0.03032,0.0441 -0.04961,0.0965 -0.01929,0.051 -0.03307,0.11162 -0.0028,0.0317 -0.0096,0.0813 -0.0069,0.0496 -0.01516,0.113 0.01654,0.0317 0.03032,0.0648 0.01516,0.0317 0.03169,0.0634 0.02067,0.0289 0.05099,0.0441 0.03169,0.0152 0.07166,0.0152 0.07993,0 0.175011,-0.0703 0.09508,-0.0703 0.110243,-0.0703 0.02205,0 0.04134,0.0386 0.02067,0.0372 0.02067,0.0606 0,0.0138 -0.01929,0.0344 -0.01792,0.0193 -0.05788,0.0427 -0.06201,0.0372 -0.100597,0.0592 -0.03858,0.0221 -0.05237,0.0289 -0.04134,0.0221 -0.08268,0.0317 -0.04134,0.008 -0.08406,0.008 -0.03445,0 -0.0689,-0.01 -0.03445,-0.01 -0.06752,-0.0248 -0.06063,-0.0276 -0.101975,-0.0648 -0.03996,-0.0372 -0.06201,-0.0868 -0.01516,-0.0331 -0.02343,-0.0868 -0.0083,-0.0551 -0.0083,-0.12953 0,-0.11162 0.03721,-0.22049 0.03858,-0.10886 0.118511,-0.21084 0.08544,-0.11024 0.179145,-0.16674 0.09508,-0.0565 0.202572,-0.0565 0.08682,0 0.129536,0.051 0.0441,0.051 0.0441,0.14882 0,0.0138 -0.0014,0.0413 -0.0014,0.0276 -0.0014,0.0413 0,0.01 -0.01102,0.0551 -0.01103,0.0441 -0.02618,0.1254 -0.01791,0.0923 -0.0565,0.13643 -0.03858,0.0441 -0.09508,0.0441 -0.03445,0 -0.05099,-0.0138 -0.01654,-0.0138 -0.01654,-0.0427 0,-0.12402 0.01516,-0.20257 0.01516,-0.0799 0.04548,-0.113 0.0083,-0.007 0.01654,-0.0179 0.0083,-0.0124 0.01516,-0.0276 z"
           style="font-style:normal;font-variant:normal;font-weight:normal;font-stretch:normal;font-size:2.82222223px;font-family:Mistral;-inkscape-font-specification:Mistral;stroke-width:0.26458332"
           id="path958"
           inkscape:connector-curvature="0" />
        <path
           d="m -58.663216,207.51353 q -0.0041,-0.0276 -0.0096,-0.0579 0,0.0124 0.0041,-0.0193 0.0041,-0.0317 0.01102,-0.10887 0.01103,-0.0152 0.01516,-0.0262 0.0055,-0.0124 0.0096,-0.0221 -0.0124,-0.0152 -0.01929,-0.0248 -0.0055,-0.011 -0.0055,-0.0179 0.01103,-0.0841 0.02067,-0.15985 0.0014,-0.0207 0.02343,-0.0469 0.02343,-0.0262 0.06339,-0.0565 0.0317,-0.0262 0.06201,-0.0441 0.03032,-0.0179 0.05788,-0.0289 0.03721,-0.0124 0.0441,-0.0207 0.0069,-0.008 0.01516,-0.008 0.02205,0 0.03307,0.022 0.0124,0.0221 0.0124,0.0662 0,0.0234 -0.0124,0.0648 -0.01102,0.0413 -0.01102,0.0606 0,0.008 0.0014,0.0634 0.0028,0.0551 0.0069,0.15847 0.0014,0.0744 0.02067,0.15848 0.02067,0.0841 0.05237,0.17501 0.04272,0.11851 0.09233,0.17777 0.04961,0.0579 0.108865,0.0579 0.04685,0 0.124023,-0.0606 0.07717,-0.0606 0.181901,-0.1819 0.07993,-0.0937 0.141938,-0.17501 0.06339,-0.0813 0.101975,-0.14883 0.03583,-0.0606 0.08406,-0.10886 0.04823,-0.0482 0.110243,-0.0882 0.01929,-0.011 0.03169,-0.0179 0.0124,-0.007 0.01929,-0.007 0.0248,0 0.03721,0.0372 0.01378,0.0372 0.01378,0.11025 -0.0083,0.0675 -0.01378,0.13367 -0.0124,0.10335 -0.03721,0.21497 -0.02343,0.11162 -0.06201,0.23151 -0.01929,0.0606 -0.03307,0.10611 -0.01378,0.0455 -0.01929,0.0772 -0.0028,0.0179 -0.0083,0.0455 -0.0041,0.0262 -0.0096,0.062 -0.01378,0.0344 -0.03032,0.0689 -0.01378,0.0276 -0.02343,0.0661 -0.0083,0.0386 -0.01516,0.0896 0,0.01 -0.0014,0.0248 -0.0014,0.0152 -0.0028,0.0317 -0.03169,0.14056 -0.06477,0.27285 -0.0028,0.0124 -0.0124,0.0317 -0.01792,0.006 -0.04134,0.0234 -0.02205,0.0179 -0.04685,0.0496 -0.0248,0.0276 -0.04134,0.0413 -0.01654,0.0124 -0.0248,0.0124 -0.01102,0 -0.01791,-0.007 -0.0069,-0.007 -0.0069,-0.0234 0.0014,-0.011 0.0041,-0.0179 0.01929,-0.0468 0.03307,-0.13505 0.01516,-0.0882 0.02756,-0.21773 0.0014,-0.0276 0.02205,-0.14883 0.02067,-0.12126 0.06063,-0.33624 0.0055,-0.0344 0.01378,-0.0841 0.0096,-0.051 0.02343,-0.11575 0.0096,-0.0331 0.01516,-0.0565 0.0069,-0.0248 0.0069,-0.0358 0,-0.0138 -0.0055,-0.0193 -0.0041,-0.007 -0.01378,-0.007 -0.0083,0 -0.03032,0.0221 -0.02205,0.0207 -0.05512,0.0634 -0.01929,0.0234 -0.03996,0.0496 -0.01929,0.0262 -0.04134,0.051 -0.03721,0.0386 -0.0689,0.073 l -0.101975,0.10197 q -0.01378,0.008 -0.03445,0.0207 -0.01929,0.0124 -0.04685,0.0289 -0.02618,0.0413 -0.08406,0.0717 -0.0565,0.0289 -0.104731,0.0289 -0.05788,0 -0.111621,-0.0358 -0.05237,-0.0372 -0.101975,-0.113 -0.02205,-0.0372 -0.0441,-0.0744 -0.02067,-0.0372 -0.04548,-0.0744 l -0.0069,10e-4 q -0.0069,0.008 -0.02618,0.11162 -0.01791,0.10335 -0.04685,0.30317 -0.03169,0.20533 -0.04823,0.32246 -0.01654,0.11713 -0.01654,0.15159 -0.0028,0.0469 -0.01791,0.073 -0.01378,0.0248 -0.0441,0.0289 -0.01516,0.001 -0.04272,0.008 -0.02756,0.006 -0.06615,0.0152 -0.0069,-0.001 -0.0124,-0.004 -0.0055,-0.004 -0.0055,-0.011 l 0.0083,-0.051 -0.01378,-0.0524 q 0.0083,-0.0427 0.01654,-0.0827 0.0055,-0.0827 0.0096,-0.15572 0.0014,-0.0152 0.0096,-0.051 0.0096,-0.0358 0.0096,-0.0538 0,-0.01 -0.0041,-0.0276 -0.0041,-0.0193 -0.0041,-0.0289 0,-0.0758 0.02343,-0.22462 0.02481,-0.14882 0.02481,-0.22599 -0.0041,-0.0317 -0.0096,-0.0634 0.0069,-0.0496 0.02205,-0.12403 0.01516,-0.0744 0.03445,-0.17363 z"
           style="font-style:normal;font-variant:normal;font-weight:normal;font-stretch:normal;font-size:2.82222223px;font-family:Mistral;-inkscape-font-specification:Mistral;stroke-width:0.26458332"
           id="path960"
           inkscape:connector-curvature="0" />
        <path
           d="m -57.252105,208.46851 0.0083,-0.01 0.0041,-0.0138 q 0.03721,-0.051 0.130914,-0.13229 0.09371,-0.0827 0.129536,-0.13367 0.01378,-0.0221 0.03169,-0.0317 0.01791,-0.01 0.03583,-0.01 0.04823,0 0.08131,0.0248 0.03307,0.0234 0.0441,0.0717 0.0096,0.0427 0.01791,0.0868 0.0083,0.0427 0.01378,0.0868 0.0096,0.0276 0.02343,0.0841 0.01378,0.0551 0.02067,0.0634 0.0069,0.0138 0.02067,0.0207 0.01378,0.006 0.03445,0.006 0.0248,0 0.05099,-0.008 0.02618,-0.01 0.05374,-0.0317 0.02067,-0.0179 0.04272,-0.0358 0.02343,-0.0193 0.04548,-0.0372 l 0.05512,0.12678 q -0.02205,0.0221 -0.05926,0.051 -0.03583,0.0276 -0.08682,0.0648 -0.0565,0.0413 -0.09646,0.062 -0.03996,0.0193 -0.06063,0.0193 -0.125401,0 -0.162608,-0.0289 -0.03721,-0.0289 -0.08268,-0.16123 -0.0055,-0.011 -0.01654,-0.0262 -0.01102,-0.0152 -0.02481,-0.0358 -0.01654,-0.0317 -0.02894,-0.0469 -0.0124,-0.0165 -0.02067,-0.0165 -0.02205,0 -0.05926,0.0303 -0.03721,0.0289 -0.09095,0.0882 -0.0069,-0.0179 -0.01654,-0.0427 -0.01102,-0.0248 -0.02205,-0.0579 -0.0028,-0.008 -0.0069,-0.0152 -0.0041,-0.007 -0.0096,-0.011 z m 0.57602,-1.08727 q 0.03445,0 0.04961,0.0138 0.01654,0.0138 0.01654,0.04 -0.0083,0.0386 -0.01378,0.0648 -0.01378,0.0496 -0.0248,0.0813 -0.0096,0.0317 -0.01516,0.0455 -0.0124,0.0303 -0.03445,0.0537 -0.02067,0.022 -0.05099,0.04 -0.03169,0.022 -0.05374,0.0317 -0.02067,0.008 -0.02894,0.007 -0.02343,-0.003 -0.04548,-0.004 -0.02067,-0.003 -0.04134,-0.003 -0.01791,-0.01 -0.02894,-0.0372 -0.0096,-0.0276 -0.0096,-0.0744 0,-0.0413 0.04961,-0.10335 0.05099,-0.0634 0.08957,-0.0675 0.02343,-0.0289 0.05512,-0.0661 0.01378,-0.01 0.03583,-0.0152 0.02205,-0.007 0.05099,-0.007 z"
           style="font-style:normal;font-variant:normal;font-weight:normal;font-stretch:normal;font-size:2.82222223px;font-family:Mistral;-inkscape-font-specification:Mistral;stroke-width:0.26458332"
           id="path962"
           inkscape:connector-curvature="0" />
        <path
           d="m -56.463867,208.46851 0.0124,-0.011 q 0.0014,-0.0152 0.01929,-0.0358 0.01791,-0.0207 0.05099,-0.0482 0.02067,-0.0152 0.04272,-0.0289 0.02343,-0.0138 0.0441,-0.0303 0.08682,-0.0744 0.16812,-0.14332 0.04685,-0.0413 0.09371,-0.0703 0.04685,-0.0303 0.08819,-0.0482 0.02894,-0.0372 0.107487,-0.0758 0.07993,-0.0386 0.129536,-0.0386 0.01929,0 0.03032,0.011 0.0124,0.011 0.01516,0.0276 v 0.0758 q 0,0.04 -0.02343,0.0717 -0.02205,0.0303 -0.06752,0.0565 -0.03032,0.0138 -0.06063,0.0303 -0.03032,0.0165 -0.06063,0.0303 -0.01102,0.0138 -0.05926,0.0524 -0.04685,0.0372 -0.128158,0.1006 -0.03721,0.0289 -0.06201,0.0524 -0.02481,0.0221 -0.03445,0.0358 -0.01378,0.0262 -0.02205,0.0579 -0.0069,0.0317 -0.0069,0.073 0,0.0317 0.0096,0.0551 0.0096,0.022 0.02894,0.0358 0.01378,0.01 0.03721,0.0193 0.02481,0.01 0.06063,0.0193 0.02067,-0.008 0.05374,-0.0152 0.03445,-0.008 0.07579,-0.0207 0.04685,-0.0276 0.09509,-0.0579 0.04961,-0.0303 0.09784,-0.062 0.0069,-0.004 0.01654,-0.008 0.01102,-0.006 0.02205,-0.0152 0.01378,-0.0179 0.03721,-0.0413 0.0248,-0.0234 0.05926,-0.0537 0.05512,0.11989 0.05512,0.12678 -0.05099,0.0413 -0.103353,0.0854 -0.05237,0.0427 -0.119889,0.0703 -0.02205,0.0179 -0.03721,0.0331 -0.0689,0.0689 -0.161231,0.10335 -0.09095,0.0358 -0.208084,0.0358 -0.02618,0 -0.04685,-0.004 -0.02067,-0.004 -0.03445,-0.011 -0.04134,-0.0276 -0.07028,-0.0482 -0.03032,-0.0221 -0.05099,-0.0413 -0.02067,-0.0207 -0.03032,-0.0386 -0.0124,-0.0193 -0.01654,-0.0469 -0.0055,-0.0276 -0.0055,-0.0675 0,-0.011 0.0069,-0.0358 0.0069,-0.0248 0.0069,-0.0344 -0.0096,-0.0303 -0.02343,-0.062 -0.01378,-0.0317 -0.03169,-0.0648 z"
           style="font-style:normal;font-variant:normal;font-weight:normal;font-stretch:normal;font-size:2.82222223px;font-family:Mistral;-inkscape-font-specification:Mistral;stroke-width:0.26458332"
           id="path964"
           inkscape:connector-curvature="0" />
        <path
           d="m -55.592947,208.46851 q 0.03032,-0.0262 0.04685,-0.0413 0.01654,-0.0152 0.02618,-0.0262 0.02205,-0.0207 0.03583,-0.04 0.01378,-0.0193 0.01516,-0.0344 0.0124,-0.0469 0.02894,-0.11713 0.01654,-0.0703 0.04272,-0.16261 0.0124,-0.0276 0.02618,-0.0689 0.01516,-0.0427 0.03169,-0.0951 0.01654,-0.0689 0.04134,-0.1254 0.0248,-0.0565 0.05512,-0.10197 0.0096,-0.0124 0.01929,-0.0303 0.0096,-0.0193 0.01929,-0.0441 0.0096,-0.022 0.02618,-0.051 0.01791,-0.0303 0.03996,-0.0703 0.0565,-0.0827 0.09922,-0.14194 0.04272,-0.0593 0.07028,-0.0951 0.04961,-0.0592 0.09922,-0.11024 0.05099,-0.0524 0.101975,-0.0965 0.04685,-0.04 0.0813,-0.0579 0.03445,-0.0193 0.05512,-0.0193 0.01929,0.0165 0.02756,0.0303 0.0096,0 0.01929,-0.003 0.03583,0 0.05237,0.0289 0.01654,0.0289 0.01654,0.0854 0,0.0124 -0.0041,0.0331 -0.0041,0.0193 -0.01102,0.0482 -0.0096,0.01 -0.01378,0.0248 -0.0041,0.0152 -0.0069,0.0303 -0.0014,0.0193 -0.0041,0.0331 -0.0028,0.0138 -0.0069,0.0248 -0.01792,0.0331 -0.03858,0.0813 -0.02067,0.0469 -0.0441,0.11025 -0.01378,0.0234 -0.03445,0.062 -0.02067,0.0386 -0.04961,0.0854 -0.01378,0.0262 -0.03583,0.0661 -0.02067,0.0386 -0.05374,0.0896 -0.0083,0.0193 -0.02894,0.0427 -0.01929,0.0221 -0.04685,0.0524 -0.0083,0.0221 -0.04685,0.0758 -0.03721,0.0538 -0.104731,0.13918 -0.03307,0.0427 -0.08544,0.10611 -0.05237,0.0634 -0.121267,0.15021 -0.02618,0.10335 -0.03996,0.18466 -0.0124,0.0799 -0.0124,0.13918 0,0.0234 0.0028,0.0358 0.0041,0.011 0.01378,0.011 0.0069,-0.01 0.01929,-0.0221 0.01378,-0.0124 0.02756,-0.0289 0.02618,-0.0234 0.06063,-0.0868 0.03583,-0.0634 0.0813,-0.16399 0.03996,-0.091 0.07166,-0.13918 0.03169,-0.0496 0.05237,-0.0593 l 0.04823,-0.0207 q 0.01378,-0.006 0.0248,-0.01 0.01102,-0.004 0.01791,-0.004 0.01791,0 0.03307,0.022 0.01516,0.0221 0.02481,0.0606 0.01791,0.0703 0.02894,0.10887 0.01102,0.0372 0.0124,0.0441 0.01791,0.0413 0.04272,0.0606 0.02618,0.0193 0.06201,0.0193 0.04272,-0.007 0.100596,-0.0193 0.01103,0.0276 0.02481,0.0593 0.01516,0.0317 0.03032,0.0675 -0.03307,0.0221 -0.06752,0.0427 -0.03307,0.0207 -0.06615,0.0413 -0.02205,0.0124 -0.06339,0.0193 -0.04134,0.006 -0.09646,0.006 -0.08406,0 -0.130914,-0.0785 -0.04548,-0.0799 -0.05512,-0.0786 h -0.0083 q -0.02205,0.0276 -0.04685,0.0565 -0.02343,0.0289 -0.04685,0.0606 -0.01516,0.0317 -0.04272,0.073 -0.02756,0.0413 -0.06615,0.0909 -0.04548,0.0551 -0.07993,0.0827 -0.03445,0.0276 -0.05926,0.0276 -0.05237,0 -0.08268,-0.0124 -0.02894,-0.011 -0.03445,-0.0344 -0.01654,-0.0772 -0.02618,-0.13367 -0.0083,-0.0579 -0.0083,-0.0978 0,-0.0124 0.0014,-0.022 0.0014,-0.01 0.0028,-0.0179 0.0041,-0.0179 0.0096,-0.0386 0,-0.007 -0.0041,-0.01 -0.0028,-0.004 -0.01102,-0.004 -0.0041,0.006 -0.01102,0.0124 -0.0069,0.007 -0.01929,0.0152 -0.0055,-0.0179 -0.01929,-0.0496 -0.01378,-0.0317 -0.03583,-0.0772 z m 0.895725,-1.27331 q -0.01516,0 -0.06063,0.0551 -0.04548,0.0538 -0.115755,0.15986 -0.03996,0.0592 -0.07855,0.11851 -0.03858,0.0579 -0.07579,0.11438 -0.01654,0.0165 -0.02481,0.0331 -0.0069,0.0165 -0.0069,0.0344 -0.02756,0.0772 -0.05374,0.14469 -0.02481,0.073 -0.04134,0.113 -0.01516,0.04 -0.01791,0.0469 l 0.0069,0.007 q 0.02756,-0.0248 0.04685,-0.0524 0.02756,-0.0317 0.06615,-0.0813 0.03996,-0.051 0.08957,-0.11852 0.04961,-0.0634 0.101975,-0.15985 0.05236,-0.0978 0.112999,-0.22462 0.03445,-0.0689 0.05099,-0.11024 0.01791,-0.0413 0.01791,-0.0579 0,-0.01 -0.0041,-0.0152 -0.0028,-0.007 -0.01378,-0.007 z"
           style="font-style:normal;font-variant:normal;font-weight:normal;font-stretch:normal;font-size:2.82222223px;font-family:Mistral;-inkscape-font-specification:Mistral;stroke-width:0.26458332"
           id="path966"
           inkscape:connector-curvature="0" />
        <path
           d="m -54.534614,208.40788 0.125402,-0.0827 q 0.0069,-0.007 0.01654,-0.0179 0.0096,-0.0124 0.02205,-0.0344 0.0096,-0.0179 0.02481,-0.0303 0.01654,-0.0124 0.03721,-0.0221 0.01102,-0.0138 0.0317,-0.0344 0.02067,-0.0207 0.05236,-0.0482 0.01516,-0.008 0.03859,-0.0234 0.02343,-0.0165 0.05099,-0.0427 0.125401,-0.11852 0.219108,-0.17777 0.09508,-0.0593 0.159852,-0.0593 0.03583,0 0.05237,0.0152 0.01791,0.0152 0.01791,0.0427 0,0.0289 -0.01102,0.051 -0.0096,0.0221 -0.0317,0.0372 -0.03445,0.0248 -0.07441,0.0551 -0.02205,0.0289 -0.05374,0.062 -0.03169,0.0317 -0.07441,0.0634 -0.01378,0.0179 -0.02343,0.0317 -0.0069,0.007 -0.02618,0.0248 -0.01929,0.0179 -0.05099,0.0413 -0.01378,0.0303 -0.06063,0.0786 -0.04548,0.0482 -0.122646,0.11575 -0.0096,0.01 -0.03445,0.0441 -0.0248,0.0345 -0.06477,0.091 l 0.0096,0.0124 q 0.03032,-0.01 0.06339,-0.0331 0.03307,-0.0234 0.07304,-0.062 0.04685,-0.0427 0.07579,-0.0689 0.03032,-0.0276 0.04272,-0.0358 0.0096,-0.006 0.01929,-0.011 0.0096,-0.006 0.02205,-0.0138 0.06339,-0.0758 0.118511,-0.11162 0.05512,-0.0372 0.101975,-0.0372 0.02894,0 0.0441,0.0234 0.01516,0.0221 0.01792,0.0675 -0.0028,0.0689 -0.0028,0.1323 -0.0014,0.0441 0.02343,0.0799 0.02618,0.0344 0.06752,0.0344 0.0124,0 0.02343,-0.007 0.0124,-0.007 0.02481,-0.0179 0.0096,-0.0124 0.01791,-0.0234 0.0096,-0.011 0.01929,-0.0221 0.0055,-0.003 0.01516,-0.01 0.01102,-0.007 0.02067,-0.0165 0.01929,0.0413 0.0317,0.073 0.01378,0.0303 0.02067,0.0537 -0.03169,0.0289 -0.06339,0.0606 -0.03032,0.0303 -0.06477,0.0579 -0.04134,0.0317 -0.07993,0.0482 -0.03858,0.0152 -0.07717,0.0152 -0.08957,0 -0.137804,-0.051 -0.04823,-0.051 -0.0565,-0.15434 0,-0.0124 -0.0041,-0.0248 -0.0028,-0.0138 -0.01378,-0.0276 -0.0069,0.007 -0.01516,0.0152 -0.0083,0.007 -0.01929,0.0193 -0.01791,0.0138 -0.04548,0.0345 -0.02618,0.0207 -0.06201,0.0496 -0.04823,0.0496 -0.0813,0.0813 -0.03307,0.0317 -0.04685,0.0455 -0.02756,0.0234 -0.06477,0.0469 -0.03583,0.0234 -0.0813,0.0482 -0.02894,0.0152 -0.04961,0.0234 -0.02067,0.01 -0.03032,0.01 -0.06615,0 -0.09784,-0.0317 -0.03169,-0.0331 -0.03169,-0.1006 0,-0.0372 0.01654,-0.0703 0.01516,-0.0344 0.04685,-0.0661 0.0028,-0.0179 0.0028,-0.0289 0,-0.007 -0.0041,-0.0138 -0.0028,-0.008 -0.0083,-0.0179 -0.0083,-0.0193 -0.01792,-0.0427 -0.01102,-0.0248 -0.02343,-0.0524 0.0055,-0.006 0.01654,-0.0207 0.0096,-0.0165 0.02343,-0.04 z"
           style="font-style:normal;font-variant:normal;font-weight:normal;font-stretch:normal;font-size:2.82222223px;font-family:Mistral;-inkscape-font-specification:Mistral;stroke-width:0.26458332"
           id="path968"
           inkscape:connector-curvature="0" />
        <path
           d="m -53.520377,208.46851 q 0.0124,-0.0138 0.0248,-0.0331 0.0124,-0.0207 0.03307,-0.0441 l 0.09095,-0.0799 q 0.0055,-0.004 0.0055,-0.011 0.0014,-0.007 0.0014,-0.0193 -0.0014,-0.0179 -0.0041,-0.0289 0,-0.0317 0.0124,-0.10611 0.0124,-0.0744 0.02205,-0.0896 l -0.0083,-0.0262 q 0.01791,-0.0923 0.04961,-0.20119 0.03307,-0.11024 0.07441,-0.2384 0.01378,-0.0221 0.02894,-0.0551 0.01516,-0.0345 0.03445,-0.0772 0.02343,-0.0717 0.06201,-0.15021 0.03859,-0.0786 0.08682,-0.16123 0.06477,-0.10886 0.114377,-0.16398 0.05099,-0.0551 0.09095,-0.0551 0.07993,0 0.108865,0.0317 0.03032,0.0303 0.03032,0.11575 0,0.0221 -0.0083,0.0689 -0.0069,0.0455 -0.0069,0.0689 0,0.0234 -0.01516,0.0661 -0.01516,0.0427 -0.01516,0.0786 -0.0014,0.011 -0.0069,0.0221 l 0.0014,0.0193 q -0.0055,0.0193 -0.01654,0.0469 -0.01103,0.0276 -0.02894,0.0661 -0.0096,0.0345 -0.02481,0.0799 -0.01516,0.0455 -0.03583,0.0992 -0.0083,0.0138 -0.02205,0.0344 -0.0124,0.0193 -0.02756,0.0441 -0.0041,0.0179 -0.01378,0.0414 -0.0096,0.0234 -0.02618,0.0551 -0.0083,0.0165 -0.02205,0.0358 -0.01378,0.0193 -0.03307,0.0496 -0.0083,0.0138 -0.01791,0.0344 -0.0096,0.0207 -0.02205,0.0469 -0.01516,0.0234 -0.03996,0.0579 -0.02481,0.0345 -0.0565,0.0813 -0.04272,0.0758 -0.08819,0.1447 0,0.13367 0.05237,0.20257 0.05374,0.0675 0.159853,0.0675 0.0069,0 0.04134,-0.01 0.03445,-0.01 0.09508,-0.0303 0.01791,-0.011 0.04272,-0.0303 0.0248,-0.0207 0.0565,-0.0482 l 0.05374,0.12678 q -0.03583,0.0317 -0.07166,0.0648 -0.03583,0.0331 -0.07304,0.0648 -0.04272,0.0358 -0.08682,0.0551 -0.0441,0.0179 -0.08682,0.0179 -0.02205,0 -0.06752,-0.004 -0.04547,-0.006 -0.0689,-0.006 -0.07717,0 -0.128157,-0.062 -0.04961,-0.062 -0.07028,-0.18603 -0.0028,-0.0124 -0.0083,-0.022 -0.0041,-0.01 -0.01654,-0.0221 -0.01791,0.0179 -0.04272,0.0427 -0.02343,0.0248 -0.05788,0.0565 z m 0.657324,-1.08176 -0.0096,-0.006 q -0.07717,0.0744 -0.117134,0.14056 -0.03859,0.0661 -0.03859,0.12816 0,0.01 -0.0096,0.0331 -0.0083,0.0221 -0.02618,0.0579 -0.02205,0.0427 -0.04547,0.0937 -0.02618,0.0772 -0.03996,0.1254 -0.01378,0.0482 -0.01378,0.0689 l 0.0083,0.011 q 0.0124,-0.001 0.03032,-0.0248 0.01791,-0.0234 0.04134,-0.0689 0.01102,-0.0248 0.03169,-0.0579 0.02067,-0.0331 0.04685,-0.0786 0.02205,-0.0303 0.07028,-0.15572 0.04823,-0.1254 0.05237,-0.15985 0.0014,-0.0276 0.0069,-0.0537 0.0069,-0.0276 0.0124,-0.0537 z"
           style="font-style:normal;font-variant:normal;font-weight:normal;font-stretch:normal;font-size:2.82222223px;font-family:Mistral;-inkscape-font-specification:Mistral;stroke-width:0.26458332"
           id="path970"
           inkscape:connector-curvature="0" />
        <path
           d="m -51.458832,207.09461 q 0.01378,-0.0234 0.03996,-0.0372 0.02756,-0.0152 0.06201,-0.0262 0.01791,-0.0207 0.04547,-0.0482 0.0083,-0.008 0.02205,-0.0165 0.01516,-0.01 0.03307,-0.0179 0.02756,-0.011 0.04823,-0.0207 0.0317,0 0.04823,0.0482 0.01654,0.0482 0.01654,0.1447 0,0.14745 -0.01929,0.26872 -0.01792,0.11989 -0.05512,0.21221 -0.0041,0.011 -0.0096,0.0248 -0.0041,0.0138 -0.01102,0.0303 -0.0041,0.0248 -0.0124,0.0579 -0.0069,0.0331 -0.01654,0.0772 -0.0028,0.0152 -0.0041,0.0358 0,0.0193 -0.0055,0.0482 -0.0028,0.0179 -0.01654,0.062 -0.01378,0.0427 -0.04134,0.11024 l 0.0055,0.0303 q -0.01102,0.0386 -0.03032,0.0951 -0.01791,0.0565 -0.0441,0.12954 -0.0083,0.0358 -0.0248,0.0868 -0.01654,0.0496 -0.03996,0.11576 -0.0041,0.0358 -0.0083,0.062 -0.0028,0.011 -0.01791,0.0592 -0.01516,0.0482 -0.04961,0.13367 -0.0096,0.0234 -0.03583,0.0441 -0.0248,0.0193 -0.0689,0.0372 -0.03721,0.0152 -0.07166,0.0234 -0.03307,0.008 -0.06339,0.008 -0.04548,0 -0.07855,-0.0193 -0.03307,-0.0207 -0.04823,-0.0579 -0.05374,-0.13229 -0.07855,-0.21084 -0.02618,-0.0799 -0.02481,-0.10473 -0.0069,-0.0124 -0.01929,-0.0441 -0.01378,-0.0317 -0.02756,-0.0868 -0.01378,-0.0496 -0.01929,-0.0841 -0.0069,-0.0344 -0.0069,-0.0537 0,-0.0896 0.01378,-0.13367 0.01378,-0.0455 0.04134,-0.0455 0.04823,0 0.08268,0.0138 0.03583,0.0138 0.06063,0.0386 0.01378,0.0165 0.02894,0.051 0.01654,0.0344 0.03721,0.0882 0.02756,0.062 0.03996,0.10059 0.01378,0.0386 0.01378,0.051 0,0.0248 -0.03445,0.0455 -0.03307,0.0193 -0.03307,0.0358 0.0124,0.0234 0.02067,0.0482 0.0096,0.0248 0.01929,0.0455 0.01516,0.0372 0.03032,0.0551 0.01654,0.0165 0.03307,0.0165 0.02205,0 0.04961,-0.062 0.02894,-0.062 0.06201,-0.18741 0.02618,-0.0923 0.04547,-0.16813 0.02067,-0.0758 0.03032,-0.13918 0.0096,-0.0262 0.02067,-0.062 0.01102,-0.0372 0.02481,-0.0882 0.0041,-0.011 0.0041,-0.0262 0.0014,-0.0165 0.0055,-0.0386 0.01102,-0.0689 0.02343,-0.13918 0.01378,-0.0717 0.02618,-0.14194 0.01378,-0.0827 0.01929,-0.15296 0.0055,-0.0717 0.0055,-0.13092 0,-0.0496 -0.06752,-0.0592 -0.06752,-0.01 -0.06752,-0.0317 0,-0.0193 0.02343,-0.0441 0.02343,-0.0262 0.0689,-0.0565 z"
           style="font-style:normal;font-variant:normal;font-weight:normal;font-stretch:normal;font-size:2.82222223px;font-family:Mistral;-inkscape-font-specification:Mistral;stroke-width:0.26458332"
           id="path972"
           inkscape:connector-curvature="0" />
        <path
           d="m -51.183225,208.46851 q 0.01654,-0.0289 0.04272,-0.0579 0.02618,-0.0303 0.06615,-0.062 0.0041,-0.0276 0.0083,-0.0537 0.0041,-0.0276 0.0055,-0.0551 0.0041,-0.0193 0.0124,-0.0455 0.0096,-0.0262 0.02067,-0.0565 0.0124,-0.0303 0.03307,-0.0758 0.02205,-0.0455 0.0565,-0.10198 0.02894,-0.0317 0.06063,-0.0689 0.03169,-0.0386 0.06339,-0.0772 0.01516,-0.0124 0.03307,-0.0234 0.01792,-0.011 0.03583,-0.0248 0.01654,-0.006 0.03721,-0.01 0.02067,-0.004 0.04548,-0.004 0.03445,0 0.05512,0.007 0.02205,0.007 0.03583,0.0234 0.0096,0.011 0.01792,0.0331 0.0096,0.022 0.01791,0.0537 0.0041,0.0276 0.0096,0.0606 0,-0.008 -0.0055,0.007 -0.0041,0.0152 -0.01378,0.0482 l -0.0124,0.0441 q -0.01929,0.0661 -0.08682,0.15296 -0.06752,0.0868 -0.181901,0.19844 -0.0096,0.01 -0.01654,0.0248 -0.0069,0.0138 -0.0069,0.0303 0,0.0289 0.0096,0.051 0.01102,0.022 0.03032,0.0331 0.01102,0.008 0.03445,0.0165 0.02481,0.008 0.05788,0.0152 0.05374,-0.004 0.09784,-0.0179 0.0441,-0.0138 0.07855,-0.0331 0.0069,-0.004 0.02205,-0.011 0.01516,-0.008 0.03032,-0.0207 0.01792,0.04 0.03169,0.0717 0.01378,0.0317 0.02205,0.0551 -0.07855,0.0772 -0.143316,0.11713 -0.06339,0.0386 -0.117133,0.0386 -0.02205,0.0138 -0.05099,0.0207 -0.02756,0.006 -0.06615,0.006 -0.05099,0 -0.09095,-0.0152 -0.03858,-0.0152 -0.06477,-0.0441 -0.01378,-0.0138 -0.02756,-0.04 -0.01378,-0.0276 -0.02894,-0.0648 -0.0124,-0.0303 -0.02343,-0.0441 -0.01102,-0.0152 -0.02481,-0.0152 -0.01102,0 -0.0248,0.011 -0.01378,0.01 -0.03032,0.0303 -0.0055,-0.0207 -0.01929,-0.051 -0.01378,-0.0303 -0.03583,-0.0758 z m 0.440972,-0.44786 q -0.03032,0 -0.0813,0.0799 -0.05099,0.0786 -0.05099,0.11576 0,0.008 0.0028,0.0124 0.0041,0.003 0.01516,0.003 0.01516,0 0.02481,-0.0152 0.0096,-0.0165 0.01791,-0.0303 0.01516,-0.0138 0.02894,-0.0289 0.01516,-0.0165 0.02894,-0.0317 0.01654,-0.0193 0.02481,-0.0386 0.0083,-0.0193 0.0083,-0.0386 0,-0.0124 -0.0055,-0.0193 -0.0041,-0.008 -0.01378,-0.008 z"
           style="font-style:normal;font-variant:normal;font-weight:normal;font-stretch:normal;font-size:2.82222223px;font-family:Mistral;-inkscape-font-specification:Mistral;stroke-width:0.26458332"
           id="path974"
           inkscape:connector-curvature="0" />
        <path
           d="m -50.488693,208.46851 q 0.0124,-0.0138 0.02205,-0.0276 0.0096,-0.0152 0.02205,-0.0331 l 0.09784,-0.0689 q 0.03445,-0.0248 0.100596,-0.0923 0.06615,-0.0675 0.162609,-0.17915 0.01102,-0.0138 0.02894,-0.0207 0.01791,-0.007 0.03996,-0.007 0.112999,0 0.16812,0.0799 0.0565,0.0785 0.0565,0.23426 0,0.13092 -0.100597,0.25632 -0.100597,0.12402 -0.100597,0.17225 0,0.0358 0.0083,0.0538 0.0083,0.0165 0.02343,0.0165 l 0.0096,-0.001 q 0.01791,-0.0138 0.04134,-0.0303 0.02343,-0.0165 0.05374,-0.0386 0.02894,-0.0455 0.122646,-0.11851 0.0248,-0.022 0.07166,-0.0703 0.04685,-0.0482 0.111621,-0.1254 l 0.05512,0.12678 q -0.04134,0.0386 -0.107487,0.0951 -0.06477,0.0565 -0.151584,0.12954 -0.01516,0.0152 -0.03859,0.0386 -0.02343,0.022 -0.05788,0.0496 -0.01102,0.008 -0.02618,0.0207 -0.01516,0.0138 -0.03032,0.0289 -0.0069,0.0165 -0.01378,0.0345 0,0.0193 0.03169,0.0978 0.03307,0.0799 0.03307,0.14056 0,0.11299 -0.06615,0.21773 -0.06615,0.1061 -0.198437,0.20257 -0.08268,0.0606 -0.158475,0.0896 -0.07441,0.0303 -0.141938,0.0303 -0.07855,0 -0.117133,-0.0372 -0.03996,-0.0358 -0.03996,-0.11024 0,-0.0455 0.02756,-0.10611 0.02756,-0.0593 0.0813,-0.13505 0.03307,-0.0455 0.08406,-0.10335 0.05099,-0.0579 0.11989,-0.13092 0.0565,-0.0579 0.08268,-0.0909 0.02618,-0.0317 0.02618,-0.04 0,-0.007 -0.01654,-0.0634 -0.01516,-0.0565 -0.01516,-0.0827 0,-0.0868 0.08957,-0.21911 0.09095,-0.13229 0.09095,-0.18328 0,-0.0179 -0.0083,-0.0386 -0.0083,-0.0221 -0.01929,-0.0538 -0.01654,-0.0344 -0.03307,-0.0496 -0.01516,-0.0152 -0.03307,-0.0152 -0.01102,0 -0.03583,0.0124 -0.02343,0.0124 -0.0565,0.0386 -0.02618,0.0234 -0.04548,0.0441 -0.01929,0.0193 -0.02894,0.0331 -0.0083,0.01 -0.02894,0.0276 -0.02067,0.0179 -0.0565,0.0427 -0.0055,0.004 -0.02618,0.0262 -0.02067,0.022 -0.05512,0.0593 z m 0.416167,0.79788 q 0,-0.0124 -0.0124,-0.0565 -0.0124,-0.0427 -0.02205,-0.0427 -0.03169,0 -0.176389,0.1819 -0.143316,0.18328 -0.143316,0.22737 0,0.0248 0.0096,0.0358 0.0096,0.0124 0.02894,0.0124 0.09095,0 0.199816,-0.10197 0.108865,-0.1006 0.108865,-0.19017 0.0041,-0.0386 0.0069,-0.0661 z"
           style="font-style:normal;font-variant:normal;font-weight:normal;font-stretch:normal;font-size:2.82222223px;font-family:Mistral;-inkscape-font-specification:Mistral;stroke-width:0.26458332"
           id="path976"
           inkscape:connector-curvature="0" />
      </g>
    </g>
  </g>
</svg>
