<?xml version="1.0" encoding="UTF-8" standalone="no"?>
<!-- Created with Inkscape (http://www.inkscape.org/) -->

<svg
   xmlns:dc="http://purl.org/dc/elements/1.1/"
   xmlns:cc="http://creativecommons.org/ns#"
   xmlns:rdf="http://www.w3.org/1999/02/22-rdf-syntax-ns#"
   xmlns:svg="http://www.w3.org/2000/svg"
   xmlns="http://www.w3.org/2000/svg"
   xmlns:sodipodi="http://sodipodi.sourceforge.net/DTD/sodipodi-0.dtd"
   xmlns:inkscape="http://www.inkscape.org/namespaces/inkscape"
   width="13.723409mm"
   height="54.571224mm"
   viewBox="0 0 13.723409 54.571224"
   version="1.1"
   id="svg80"
   inkscape:version="0.92.1 r15371"
   sodipodi:docname="fork.svg">
  <defs
     id="defs74" />
  <sodipodi:namedview
     id="base"
     pagecolor="#ffffff"
     bordercolor="#666666"
     borderopacity="1.0"
     inkscape:pageopacity="0.0"
     inkscape:pageshadow="2"
     inkscape:zoom="0.35"
     inkscape:cx="465.78057"
     inkscape:cy="-545.59813"
     inkscape:document-units="mm"
     inkscape:current-layer="layer1"
     showgrid="false"
     inkscape:window-width="1920"
     inkscape:window-height="986"
     inkscape:window-x="-11"
     inkscape:window-y="-11"
     inkscape:window-maximized="1" />
  <metadata
     id="metadata77">
    <rdf:RDF>
      <cc:Work
         rdf:about="">
        <dc:format>image/svg+xml</dc:format>
        <dc:type
           rdf:resource="http://purl.org/dc/dcmitype/StillImage" />
        <dc:title></dc:title>
      </cc:Work>
    </rdf:RDF>
  </metadata>
  <g
     inkscape:label="Layer 1"
     inkscape:groupmode="layer"
     id="layer1"
     transform="translate(17.404443,50.094063)">
    <rect
       x="-11.491009"
       y="-34.561054"
       style="fill:#ffc61b;stroke-width:0.26458332"
       width="2.1113751"
       height="15.612798"
       id="rect14" />
    <path
       inkscape:connector-curvature="0"
       style="fill:#ff7f4f;stroke-width:0.26458332"
       d="m -10.433731,4.4771599 v 0 c 1.763713,0 3.1937859,-1.429808 3.1937859,-3.193785 V -19.654692 c 0,-1.763712 -1.4298079,-3.193785 -3.1937859,-3.193785 v 0 c -1.763712,0 -3.193785,1.429808 -3.193785,3.193785 V 1.2833749 c 0,1.763977 1.430073,3.193785 3.193785,3.193785 z"
       id="path16" />
    <path
       inkscape:connector-curvature="0"
       style="fill:#bcc6cc;fill-opacity:1;stroke-width:0.26458332"
       d="m -3.6810347,-37.817545 v -11.021483 c 0,-0.643202 -0.4815416,-1.219729 -1.12395,-1.253066 -0.6850062,-0.03598 -1.2514791,0.509058 -1.2514791,1.185862 v 9.110133 c 0,0.534194 -0.4333875,0.967052 -0.9673167,0.965994 -0.4310063,-7.94e-4 -0.9374188,-0.0019 -1.3678958,-0.0024 -0.5328707,-7.94e-4 -0.9633477,-0.433388 -0.9633477,-0.965994 v -9.040812 c 0,-0.643202 -0.481542,-1.21973 -1.12395,-1.253067 -0.685007,-0.03598 -1.251479,0.509058 -1.251479,1.185862 v 9.107752 c 0,0.532871 -0.430478,0.9652 -0.963348,0.965994 -0.430477,5.29e-4 -0.93689,0.0013 -1.367896,0.0024 -0.534194,7.94e-4 -0.967317,-0.432064 -0.967317,-0.965993 v -9.042929 c 0,-0.643202 -0.481542,-1.21973 -1.12395,-1.253067 -0.685006,-0.03598 -1.251479,0.509058 -1.251479,1.185862 v 11.088688 c 0,2.888191 2.341298,5.229489 5.22949,5.229489 h 1.631156 c 5.29e-4,0 7.94e-4,0 0.0013,0 5.29e-4,0 7.93e-4,0 0.0013,0 h 1.631156 c 2.887927,-2.64e-4 5.2289603,-2.341033 5.2289603,-5.229225 z"
       id="path18" />
  </g>
</svg>
