<?xml version="1.0" encoding="UTF-8" standalone="no"?>
<!-- Generator: Adobe Illustrator 19.0.0, SVG Export Plug-In . SVG Version: 6.00 Build 0)  -->

<svg
   xmlns:dc="http://purl.org/dc/elements/1.1/"
   xmlns:cc="http://creativecommons.org/ns#"
   xmlns:rdf="http://www.w3.org/1999/02/22-rdf-syntax-ns#"
   xmlns:svg="http://www.w3.org/2000/svg"
   xmlns="http://www.w3.org/2000/svg"
   xmlns:sodipodi="http://sodipodi.sourceforge.net/DTD/sodipodi-0.dtd"
   xmlns:inkscape="http://www.inkscape.org/namespaces/inkscape"
   version="1.1"
   id="Layer_1"
   x="0px"
   y="0px"
   viewBox="0 0 341.33301 216.836"
   xml:space="preserve"
   sodipodi:docname="logo-small.svg"
   inkscape:version="0.92.1 r15371"
   width="341.33301"
   height="216.836"><metadata
     id="metadata61"><rdf:RDF><cc:Work
         rdf:about=""><dc:format>image/svg+xml</dc:format><dc:type
           rdf:resource="http://purl.org/dc/dcmitype/StillImage" /><dc:title></dc:title></cc:Work></rdf:RDF></metadata><defs
     id="defs59" /><sodipodi:namedview
     pagecolor="#ffffff"
     bordercolor="#666666"
     borderopacity="1"
     objecttolerance="10"
     gridtolerance="10"
     guidetolerance="10"
     inkscape:pageopacity="0"
     inkscape:pageshadow="2"
     inkscape:window-width="1366"
     inkscape:window-height="706"
     id="namedview57"
     showgrid="false"
     inkscape:zoom="0.65186406"
     inkscape:cx="-20.097198"
     inkscape:cy="-26.855257"
     inkscape:window-x="-8"
     inkscape:window-y="-8"
     inkscape:window-maximized="1"
     inkscape:current-layer="Layer_1" /><circle
     style="fill:#f9a602;fill-opacity:1"
     cx="172.489"
     cy="108.418"
     r="108.418"
     id="circle6" /><path
     style="fill:#f15b00;fill-opacity:1"
     d="M 280.902,108.418 C 280.902,49.147999 233.336,1.0189993 174.297,0.04499927 V 216.79 c 59.039,-0.973 106.605,-49.102 106.605,-108.372 z"
     id="path8"
     inkscape:connector-curvature="0" /><circle
     style="fill:#ffedb5"
     cx="172.489"
     cy="108.418"
     r="72.278"
     id="circle10" /><path
     style="fill:#fee187"
     d="m 244.764,108.418 c 0,-39.310001 -31.387,-71.268001 -70.465,-72.233001 V 180.652 c 39.077,-0.966 70.465,-32.924 70.465,-72.234 z"
     id="path12"
     inkscape:connector-curvature="0" /><rect
     x="311.815"
     y="61.647995"
     style="fill:#ffc61b"
     width="7.98"
     height="59.008999"
     id="rect14" /><path
     style="fill:#ff7f4f"
     d="m 315.811,209.194 v 0 c 6.666,0 12.071,-5.404 12.071,-12.071 v -79.136 c 0,-6.666 -5.404,-12.071 -12.071,-12.071 v 0 c -6.666,0 -12.071,5.404 -12.071,12.071 v 79.136 c 0,6.667 5.405,12.071 12.071,12.071 z"
     id="path16"
     inkscape:connector-curvature="0" /><path
     style="fill:#bcc6cc;fill-opacity:1"
     d="M 341.333,49.339999 V 7.6839993 c 0,-2.431 -1.82,-4.61 -4.248,-4.736 -2.589,-0.136 -4.73,1.924 -4.73,4.482 V 41.861999 c 0,2.019 -1.638,3.655 -3.656,3.651 -1.629,-0.003 -3.543,-0.007 -5.17,-0.009 -2.014,-0.003 -3.641,-1.638 -3.641,-3.651 V 7.6829993 c 0,-2.431 -1.82,-4.61 -4.248,-4.736 -2.589,-0.136 -4.73,1.924 -4.73,4.482 V 41.851999 c 0,2.014 -1.627,3.648 -3.641,3.651 -1.627,0.002 -3.541,0.005 -5.17,0.009 -2.019,0.003 -3.656,-1.633 -3.656,-3.651 V 7.6829993 c 0,-2.431 -1.82,-4.61 -4.248,-4.736 -2.589,-0.136 -4.73,1.924 -4.73,4.482 V 49.338999 c 0,10.916 8.849,19.765 19.765,19.765 h 6.165 c 0.002,0 0.003,0 0.005,0 0.002,0 0.003,0 0.005,0 h 6.165 c 10.915,-0.001 19.763,-8.848 19.763,-19.764 z"
     id="path18"
     inkscape:connector-curvature="0" /><rect
     x="25.577999"
     y="60.785995"
     style="fill:#ffc61b"
     width="7.9949999"
     height="59.130001"
     id="rect20" /><path
     style="fill:#bcc6cc;fill-opacity:1"
     d="m 0,45.994999 c 0,-16.331 13.238,-44.3529997 29.568,-44.3529997 16.33,0 29.568,28.0219997 29.568,44.3529997 0,16.331 -13.238,29.568 -29.568,29.568 -16.33,0 -29.568,-13.237 -29.568,-29.568 z"
     id="path22"
     inkscape:connector-curvature="0" /><path
     style="fill:#ff7f4f"
     d="m 29.568,208.623 v 0 c 6.68,0 12.097,-5.417 12.097,-12.097 v -79.298 c 0,-6.68 -5.417,-12.097 -12.097,-12.097 v 0 c -6.68,0 -12.097,5.417 -12.097,12.097 v 79.298 c 0.001,6.681 5.417,12.097 12.097,12.097 z"
     id="path24"
     inkscape:connector-curvature="0" /><g
     id="g26"
     transform="translate(-81.701,-147.582)" /><g
     id="g28"
     transform="translate(-81.701,-147.582)" /><g
     id="g30"
     transform="translate(-81.701,-147.582)" /><g
     id="g32"
     transform="translate(-81.701,-147.582)" /><g
     id="g34"
     transform="translate(-81.701,-147.582)" /><g
     id="g36"
     transform="translate(-81.701,-147.582)" /><g
     id="g38"
     transform="translate(-81.701,-147.582)" /><g
     id="g40"
     transform="translate(-81.701,-147.582)" /><g
     id="g42"
     transform="translate(-81.701,-147.582)" /><g
     id="g44"
     transform="translate(-81.701,-147.582)" /><g
     id="g46"
     transform="translate(-81.701,-147.582)" /><g
     id="g48"
     transform="translate(-81.701,-147.582)" /><g
     id="g50"
     transform="translate(-81.701,-147.582)" /><g
     id="g52"
     transform="translate(-81.701,-147.582)" /><g
     id="g54"
     transform="translate(-81.701,-147.582)" /></svg>